<?xml version="1.0" encoding="UTF-8"?>
<svg id="Layer_1" data-name="Layer 1" xmlns="http://www.w3.org/2000/svg" viewBox="0 0 1920 424">
  <path d="M324.44,366.09c-25.98,0-47.69-3.79-65.15-11.36-17.45-7.57-30.65-17.45-39.57-29.63s-13.67-25.17-14.21-38.97c0-2.16.81-4.12,2.44-5.88,1.62-1.76,3.65-2.64,6.09-2.64h43.43c3.51,0,6.22.75,8.12,2.23,1.89,1.49,3.65,3.32,5.28,5.48,1.89,4.6,4.93,9.07,9.13,13.39,4.19,4.33,9.94,7.92,17.25,10.76,7.31,2.84,16.37,4.26,27.19,4.26,17.59,0,30.78-2.84,39.57-8.52,8.79-5.68,13.19-13.39,13.19-23.14,0-7.03-2.37-12.72-7.1-17.05-4.74-4.33-12.18-8.25-22.32-11.77-10.15-3.51-23.61-7.31-40.39-11.37-20.29-4.33-37.54-9.94-51.75-16.84-14.21-6.9-24.9-15.83-32.07-26.79-7.17-10.96-10.76-24.56-10.76-40.79s4.46-30.64,13.39-43.23c8.93-12.58,21.51-22.46,37.75-29.63,16.24-7.17,35.58-10.76,58.04-10.76,18.13,0,34.16,2.44,48.1,7.31,13.93,4.87,25.57,11.23,34.91,19.08,9.34,7.85,16.44,16.24,21.31,25.17s7.44,17.59,7.71,25.98c0,2.17-.81,4.13-2.44,5.89-1.62,1.76-3.65,2.64-6.09,2.64h-45.46c-2.71,0-5.14-.54-7.31-1.62-2.17-1.08-3.93-2.97-5.28-5.68-1.62-7.03-6.43-13.19-14.41-18.47-7.98-5.28-18.33-7.91-31.05-7.91s-23.74,2.44-31.46,7.31c-7.71,4.87-11.57,12.32-11.57,22.32,0,6.49,1.96,11.97,5.89,16.44,3.92,4.46,10.55,8.39,19.89,11.77,9.34,3.39,21.72,7.1,37.14,11.16,23.81,4.87,43.16,10.69,58.04,17.45,14.88,6.77,25.84,15.49,32.88,26.18,7.03,10.69,10.55,24.15,10.55,40.39,0,18.13-5.07,33.69-15.22,46.68-10.15,12.99-24.09,22.93-41.81,29.83-17.73,6.9-38.36,10.35-61.9,10.35Z" style="fill: none; stroke: #ef8818; stroke-miterlimit: 10; stroke-width: 14px;"/>
  <path d="M599.63,366.09c-25.44,0-47.02-4.26-64.74-12.79-17.73-8.52-31.46-20.97-41.2-37.34-9.74-16.37-15.16-36.33-16.24-59.87-.27-11.09-.41-23-.41-35.72s.13-24.89.41-36.53c1.08-23.27,6.56-43.09,16.44-59.46,9.87-16.37,23.74-28.88,41.6-37.54,17.86-8.66,39.23-12.99,64.13-12.99,18.13,0,34.63,2.3,49.52,6.9,14.88,4.6,27.73,11.23,38.56,19.89,10.82,8.66,19.21,18.81,25.17,30.44,5.95,11.64,9.2,24.63,9.74,38.97,0,2.44-.88,4.46-2.64,6.09-1.76,1.62-3.86,2.44-6.29,2.44h-46.27c-3.25,0-5.82-.81-7.71-2.44-1.9-1.62-3.39-4.33-4.46-8.12-4.06-15.96-10.83-26.92-20.29-32.88-9.48-5.95-21.25-8.93-35.31-8.93-16.78,0-30.04,4.6-39.78,13.8-9.74,9.2-15.02,24.49-15.83,45.87-.81,22.19-.81,44.92,0,68.19.81,21.38,6.09,36.67,15.83,45.87,9.74,9.2,23,13.8,39.78,13.8,14.07,0,25.91-3.04,35.52-9.13,9.6-6.09,16.3-16.98,20.09-32.67,1.08-4.06,2.57-6.83,4.46-8.32,1.89-1.48,4.46-2.23,7.71-2.23h46.27c2.44,0,4.53.81,6.29,2.43,1.76,1.62,2.64,3.65,2.64,6.09-.55,14.35-3.79,27.33-9.74,38.97-5.96,11.64-14.35,21.79-25.17,30.44-10.83,8.66-23.68,15.29-38.56,19.89-14.89,4.6-31.39,6.9-49.52,6.9Z" style="fill: none; stroke: #ef8818; stroke-miterlimit: 10; stroke-width: 14px;"/>
  <path d="M778.22,362.04c-2.98,0-5.42-.95-7.31-2.84-1.9-1.89-2.84-4.33-2.84-7.31V88.06c0-2.97.94-5.41,2.84-7.31,1.89-1.89,4.33-2.84,7.31-2.84h107.56c33.82,0,60.48,7.78,79.96,23.34,19.48,15.56,29.22,37.95,29.22,67.18,0,19.76-4.74,36.26-14.21,49.52-9.47,13.26-22.19,23.14-38.15,29.63l57.23,101.47c.81,1.62,1.22,3.11,1.22,4.46,0,2.17-.81,4.13-2.44,5.88-1.62,1.76-3.65,2.64-6.09,2.64h-45.05c-4.87,0-8.52-1.28-10.96-3.86-2.44-2.57-4.2-4.93-5.28-7.1l-49.52-92.95h-49.11v93.76c0,2.98-.95,5.42-2.84,7.31-1.9,1.9-4.33,2.84-7.31,2.84h-44.24ZM832.61,206.58h51.95c14.88,0,25.91-3.38,33.08-10.15,7.17-6.76,10.76-16.24,10.76-28.41s-3.52-21.78-10.55-28.82c-7.04-7.03-18.13-10.55-33.28-10.55h-51.95v77.93Z" style="fill: none; stroke: #ef8818; stroke-miterlimit: 10; stroke-width: 14px;"/>
  <path d="M1156.52,366.09c-24.63,0-45.87-4.06-63.72-12.18-17.86-8.12-31.8-20.36-41.81-36.73-10.01-16.37-15.42-37-16.24-61.9-.27-11.63-.41-23.2-.41-34.7s.13-23.2.41-35.11c.81-24.35,6.29-44.85,16.44-61.49s24.21-29.15,42.21-37.55c17.99-8.38,39.03-12.58,63.12-12.58s44.71,4.2,62.71,12.58c17.99,8.39,32.13,20.9,42.42,37.55,10.28,16.64,15.69,37.14,16.24,61.49.54,11.91.81,23.61.81,35.11s-.27,23.07-.81,34.7c-.81,24.9-6.23,45.53-16.24,61.9-10.01,16.38-23.95,28.62-41.81,36.73-17.86,8.12-38.97,12.18-63.32,12.18ZM1156.52,313.73c15.69,0,28.62-4.8,38.76-14.41,10.15-9.6,15.49-24.96,16.03-46.07.54-11.9.81-23.07.81-33.49s-.27-21.44-.81-33.08c-.27-14.07-2.84-25.57-7.71-34.5s-11.3-15.49-19.28-19.69c-7.98-4.19-17.25-6.29-27.8-6.29s-19.89,2.1-28.01,6.29c-8.12,4.2-14.55,10.76-19.28,19.69-4.74,8.93-7.38,20.43-7.92,34.5-.27,11.64-.41,22.67-.41,33.08s.13,21.58.41,33.49c.81,21.11,6.22,36.47,16.24,46.07,10.01,9.61,23,14.41,38.97,14.41Z" style="fill: none; stroke: #ef8818; stroke-miterlimit: 10; stroke-width: 14px;"/>
  <path d="M1339.16,362.04c-2.98,0-5.42-.95-7.31-2.84-1.9-1.89-2.84-4.33-2.84-7.31V88.06c0-2.97.95-5.41,2.84-7.31,1.89-1.89,4.33-2.84,7.31-2.84h45.05c2.97,0,5.41.95,7.31,2.84,1.89,1.9,2.84,4.33,2.84,7.31v219.59h125.83c2.97,0,5.41.95,7.31,2.84,1.89,1.9,2.84,4.33,2.84,7.31v34.09c0,2.98-.95,5.42-2.84,7.31-1.9,1.9-4.33,2.84-7.31,2.84h-181.03Z" style="fill: none; stroke: #ef8818; stroke-miterlimit: 10; stroke-width: 14px;"/>
  <path d="M1577.83,362.04c-2.98,0-5.42-.95-7.31-2.84-1.9-1.89-2.84-4.33-2.84-7.31V88.06c0-2.97.95-5.41,2.84-7.31,1.89-1.89,4.33-2.84,7.31-2.84h45.05c2.97,0,5.41.95,7.31,2.84,1.89,1.9,2.84,4.33,2.84,7.31v219.59h125.83c2.97,0,5.41.95,7.31,2.84,1.89,1.9,2.84,4.33,2.84,7.31v34.09c0,2.98-.95,5.42-2.84,7.31-1.9,1.9-4.33,2.84-7.31,2.84h-181.03Z" style="fill: none; stroke: #ef8818; stroke-miterlimit: 10; stroke-width: 14px;"/>
</svg>